<svg width="512" height="512" viewBox="0 0 512 512" fill="none" xmlns="http://www.w3.org/2000/svg">
  <rect width="512" height="512" rx="64" fill="url(#gradient)"/>
  <defs>
    <linearGradient id="gradient" x1="0%" y1="0%" x2="100%" y2="100%">
      <stop offset="0%" style="stop-color:#8B5CF6;stop-opacity:1" />
      <stop offset="100%" style="stop-color:#3B82F6;stop-opacity:1" />
    </linearGradient>
  </defs>
  
  <!-- Музыкальная нота -->
  <path d="M320 128C320 119.163 327.163 112 336 112H368C376.837 112 384 119.163 384 128V320C384 355.346 355.346 384 320 384C284.654 384 256 355.346 256 320C256 284.654 284.654 256 320 256C328.837 256 336 248.837 336 240V192L384 176V240C384 248.837 391.163 256 400 256C435.346 256 464 284.654 464 320C464 355.346 435.346 384 400 384C364.654 384 336 355.346 336 320V128H320Z" fill="white"/>
  
  <!-- Волны звука -->
  <path d="M128 192C136.837 192 144 199.163 144 208V304C144 312.837 136.837 320 128 320C119.163 320 112 312.837 112 304V208C112 199.163 119.163 192 128 192Z" fill="white" opacity="0.8"/>
  <path d="M176 160C184.837 160 192 167.163 192 176V336C192 344.837 184.837 352 176 352C167.163 352 160 344.837 160 336V176C160 167.163 167.163 160 176 160Z" fill="white" opacity="0.6"/>
  <path d="M224 128C232.837 128 240 135.163 240 144V368C240 376.837 232.837 384 224 384C215.163 384 208 376.837 208 368V144C208 135.163 215.163 128 224 128Z" fill="white" opacity="0.4"/>
</svg>